<!-- NOTE: Edited the fill color -->

<svg width="2048" height="2048" viewBox="0 0 2048 2048" fill="none" xmlns="http://www.w3.org/2000/svg">
<g clip-path="url(#clip0_34_54)">
<path d="M981.975 2048H1067.25C1530.18 2048 1761.69 2048 1905.46 1904.23C2049.23 1760.46 2048 1529.04 2048 1067.25V980.747C2048 519.045 2048 287.54 1905.46 143.77C1762.92 0.00040625 1530.18 0 1067.25 0H981.975C518.963 0 287.539 0.00040625 143.769 143.77C-9.375e-05 287.54 0 518.882 0 980.747V1067.25C0 1529.04 -9.375e-05 1760.46 143.769 1904.23C287.539 2048 518.963 2048 981.975 2048Z" fill="black"/>
<path d="M1098.99 1476.6C637.206 1476.6 356.958 1156.21 346.062 623.812H579.944C587.235 1014.9 765.165 1180.87 901.562 1214.7V623.812H1125.78V961.241C1257.34 946.659 1394.97 793.141 1441.33 623.812H1661.78C1626.47 832.135 1476.64 985.653 1370.64 1048.98C1476.64 1100.18 1647.2 1234.2 1712.98 1476.6H1470.58C1419.38 1314.56 1293.88 1189.06 1125.78 1172.02V1476.6H1098.99Z" fill="white"/>
</g>
<defs>
<clipPath id="clip0_34_54">
<rect width="2048" height="2048" fill="#121212"/>
</clipPath>
</defs>
</svg>
