<!-- NOTE: This is vkplay.ru favicon image -->
<!-- NOTE: Edited the fill colors -->

<svg width="120" height="120" viewBox="0 0 120 120" fill="none" xmlns="http://www.w3.org/2000/svg">
<path d="M62.52 0c27.12 0 40.68 0 49.08 8.4 8.4 8.4 8.4 21.96 8.4 49.08v5.04c0 27.12 0 40.68-8.4 49.08-8.4 8.4-21.96 8.4-49.08 8.4h-5.04c-27.12 0-40.68 0-49.08-8.4C0 103.2 0 89.64 0 62.52v-5.04C0 30.36 0 16.8 8.4 8.4 16.8 0 30.36 0 57.48 0h5.04z" fill="#121212"/>
<path d="M.36 33.72C0 40.2 0 48 0 57.48v5.04c0 7.2 0 13.32.12 18.72C15.84 88.92 36.96 93.6 60 93.6s44.16-4.68 59.88-12.36c.12-5.4.12-11.64.12-18.72v-5.04c0-9.48 0-17.28-.36-23.88H.36v.12z" fill="#ededed"/>
<path d="M83.4 72c6.296 0 11.4-5.104 11.4-11.4s-5.104-11.4-11.4-11.4S72 54.304 72 60.6 77.104 72 83.4 72zm-33 2.4L24 48m26.4 0L24 74.4" stroke="#121212" stroke-width="11.99"/>
</svg>