<?xml version="1.0" encoding="UTF-8" standalone="no"?>

<!-- Created with Inkscape (http://www.inkscape.org/) -->
<!-- NOTE: Edited the fill colors -->

<svg
   version="1.1"
   id="svg2"
   width="256"
   height="256"
   viewBox="0 0 256 256"
   sodipodi:docname="yt_icon_mono_light.ai"
   xmlns:inkscape="http://www.inkscape.org/namespaces/inkscape"
   xmlns:sodipodi="http://sodipodi.sourceforge.net/DTD/sodipodi-0.dtd"
   xmlns="http://www.w3.org/2000/svg"
   xmlns:svg="http://www.w3.org/2000/svg">
  <defs
     id="defs6">
    <clipPath
       clipPathUnits="userSpaceOnUse"
       id="clipPath16">
      <path
         d="M 0,192 H 192 V 0 H 0 Z"
         id="path14" />
    </clipPath>
  </defs>
  <sodipodi:namedview
     id="namedview4"
     pagecolor="#ffffff"
     bordercolor="#000000"
     borderopacity="0.25"
     inkscape:showpageshadow="2"
     inkscape:pageopacity="0.0"
     inkscape:pagecheckerboard="0"
     inkscape:deskcolor="#d1d1d1" />
  <g
     id="g8"
     inkscape:groupmode="layer"
     inkscape:label="yt_icon_mono_light"
     transform="matrix(1.3333333,0,0,-1.3333333,0,256)">
    <g
       id="g10">
      <g
         id="g12"
         clip-path="url(#clipPath16)">
        <g
           id="g18"
           transform="translate(180.3223,138.6372)">
          <path
             d="m 0,0 c -2.024,7.622 -7.987,13.624 -15.561,15.661 -13.724,3.702 -68.761,3.702 -68.761,3.702 0,0 -55.037,0 -68.762,-3.702 -7.573,-2.037 -13.537,-8.039 -15.561,-15.661 -3.677,-13.814 -3.677,-42.637 -3.677,-42.637 0,0 0,-28.822 3.677,-42.638 2.024,-7.621 7.988,-13.623 15.561,-15.661 13.725,-3.701 68.762,-3.701 68.762,-3.701 0,0 55.037,0 68.761,3.701 7.574,2.038 13.537,8.04 15.561,15.661 3.678,13.816 3.678,42.638 3.678,42.638 0,0 0,28.823 -3.678,42.637"
             style="fill:#121212;fill-opacity:1;fill-rule:nonzero;stroke:none"
             id="path20" />
        </g>
        <g
           id="g22"
           transform="translate(78,69.8311)">
          <path
             d="M 0,0 46,26.168 0,52.338 Z"
             style="fill:#ededed;fill-opacity:1;fill-rule:nonzero;stroke:none"
             id="path24" />
        </g>
      </g>
    </g>
  </g>
</svg>
